<?xml version="1.0" encoding="iso-8859-1"?>
<!-- Generator: Adobe Illustrator 19.0.0, SVG Export Plug-In . SVG Version: 6.00 Build 0)  -->
<svg version="1.1" id="Layer_1" xmlns="http://www.w3.org/2000/svg" xmlns:xlink="http://www.w3.org/1999/xlink" x="0px" y="0px"
	 viewBox="0 0 495.755 495.755" style="enable-background:new 0 0 495.755 495.755;" xml:space="preserve">
<g>
	<g>
		<path d="M230.14,396.699l-17.449-6.573c-0.578-0.215-1.123-0.297-1.619-0.297c-1.148,0-2.031,0.462-2.543,0.818
			c-0.727,0.495-1.941,1.652-1.941,3.708v30.613c0,1.957,1.131,3.097,1.8,3.601c0.669,0.504,2.081,1.255,3.964,0.727l16.714-4.847
			c6.218-1.8,10.554-7.589,10.554-14.055C239.62,404.346,235.813,398.837,230.14,396.699z"/>
	</g>
</g>
<g>
	<g>
		<path d="M230.14,307.497l-17.449-6.573c-0.578-0.215-1.123-0.297-1.619-0.297c-1.148,0-2.031,0.462-2.543,0.818
			c-0.727,0.495-1.941,1.652-1.941,3.708v30.613c0,1.957,1.131,3.097,1.8,3.601s2.081,1.263,3.964,0.727l16.714-4.847
			c6.218-1.8,10.554-7.589,10.554-14.055C239.62,315.144,235.813,309.635,230.14,307.497z"/>
	</g>
</g>
<g>
	<g>
		<path d="M230.14,223.279l-17.449-6.573c-0.578-0.215-1.123-0.297-1.619-0.297c-1.148,0-2.031,0.462-2.543,0.818
			c-0.727,0.495-1.941,1.652-1.941,3.708v30.613c0,1.957,1.131,3.097,1.8,3.601c0.669,0.504,2.081,1.255,3.964,0.727l16.714-4.847
			c6.218-1.8,10.554-7.589,10.554-14.055C239.62,230.926,235.813,225.418,230.14,223.279z"/>
	</g>
</g>
<g>
	<g>
		<path d="M287.225,390.638c-0.727-0.504-2.213-1.23-4.162-0.512l-17.449,6.573c-5.665,2.139-9.48,7.647-9.48,13.692
			c0,6.468,4.343,12.249,10.562,14.057l16.706,4.847c1.875,0.529,3.295-0.223,3.964-0.727c0.677-0.504,1.8-1.643,1.8-3.601v-30.613
			C289.166,392.298,287.952,391.142,287.225,390.638z"/>
	</g>
</g>
<g>
	<g>
		<path d="M287.225,301.436c-0.727-0.496-2.213-1.23-4.162-0.512l-17.449,6.573c-5.665,2.139-9.48,7.647-9.48,13.692
			c0,6.468,4.343,12.249,10.562,14.057l16.706,4.847c1.875,0.529,3.295-0.223,3.964-0.727c0.677-0.504,1.8-1.643,1.8-3.601v-30.613
			C289.166,303.096,287.952,301.94,287.225,301.436z"/>
	</g>
</g>
<g>
	<g>
		<path d="M436.738,169.342c0.025-0.033,0.074-0.107,0.107-0.157c0.149-0.223,0.306-0.471,0.512-0.793
			c0.157-0.239,0.314-0.487,0.496-0.776c7.564-11.949,39.226-69.335,16.227-161.297c-0.917-3.675-4.22-6.26-8.01-6.26l-4.071-0.041
			c-68.327-0.611-155.02,17.97-194.122,108.494C208.783,17.98,122.065-0.675,53.754,0.018L49.683,0.06
			c-3.79,0-7.094,2.585-8.01,6.26C18.6,98.595,50.558,156.054,57.974,167.731c0.124,0.19,0.223,0.355,0.33,0.52
			c0.289,0.446,0.495,0.768,0.677,1.041c0.008,0.017,0.025,0.041,0.033,0.058c86.544,173.568-10.983,274.845-15.178,279.073
			c-3.204,3.237-3.204,8.456,0.008,11.669c10.76,10.76,27.698,18.25,47.377,23.536l10.058-10.067
			c2.502-3.32,29.333-39.919,38.037-93.713c12.007-74.141-14.551-144.384-78.955-208.789c2.32,2.321,4.715,4.484,7.16,6.507
			c1.709,1.42,3.46,2.659,5.194,3.914c0.702,0.495,1.379,1.057,2.081,1.536c9.365,6.367,19.142,10.438,29.085,12.75
			c115.192,150.792,11.181,287.042,10.009,288.487c-0.182,0.215-0.363,0.421-0.562,0.611l-3.097,3.097
			c35.865,6.73,76.85,7.787,106.752,7.787c7.713,0,14.683-0.066,20.637-0.132c0.735-0.008,1.321-0.008,1.998-0.017v-57.815
			c-1.883,1.007-3.84,1.908-5.954,2.519l-16.706,4.848c-1.957,0.57-3.947,0.851-5.921,0.851c-4.476,0-8.861-1.453-12.569-4.228
			c-5.335-4.013-8.398-10.133-8.398-16.813v-30.613c0-6.904,3.386-13.37,9.059-17.284c5.673-3.931,12.924-4.814,19.382-2.387
			l17.458,6.565c1.272,0.487,2.469,1.082,3.65,1.718v-34.378c-1.883,1.016-3.84,1.908-5.954,2.519l-16.706,4.847
			c-1.957,0.57-3.947,0.851-5.921,0.851c-4.476,0-8.861-1.445-12.569-4.228c-5.335-4.013-8.398-10.133-8.398-16.805v-30.613
			c0-6.904,3.386-13.378,9.059-17.292c5.673-3.939,12.924-4.823,19.382-2.387l17.458,6.573c1.272,0.479,2.469,1.082,3.65,1.709
			v-29.39c-1.883,1.007-3.84,1.908-5.954,2.519l-16.706,4.847c-1.957,0.57-3.947,0.851-5.921,0.851
			c-4.476,0-8.861-1.453-12.569-4.228c-5.335-4.013-8.398-10.133-8.398-16.813V220.93c0-6.904,3.386-13.37,9.059-17.284
			c5.673-3.931,12.924-4.814,19.382-2.387l17.458,6.565c1.272,0.487,2.469,1.082,3.65,1.718v-59.805
			c3.163-2.469,5.896-4.691,8.25-6.664c2.337,1.965,5.07,4.203,8.266,6.697v59.772c1.181-0.636,2.378-1.23,3.65-1.718l17.458-6.565
			c6.466-2.428,13.7-1.544,19.382,2.387c5.673,3.914,9.059,10.38,9.059,17.284v30.613c0,6.681-3.055,12.8-8.398,16.813
			c-3.708,2.775-8.085,4.228-12.569,4.228c-1.965,0-3.956-0.281-5.921-0.851l-16.706-4.847c-2.106-0.611-4.071-1.511-5.954-2.519
			v29.39c1.181-0.628,2.378-1.23,3.65-1.709l17.458-6.573c6.466-2.436,13.7-1.553,19.382,2.387
			c5.673,3.914,9.059,10.389,9.059,17.292v30.613c0,6.673-3.055,12.792-8.398,16.805c-3.708,2.783-8.085,4.228-12.569,4.228
			c-1.965,0-3.956-0.281-5.921-0.851l-16.706-4.847c-2.106-0.611-4.071-1.503-5.954-2.519v34.378c1.181-0.636,2.378-1.23,3.65-1.718
			l17.458-6.565c6.466-2.428,13.7-1.544,19.382,2.387c5.673,3.914,9.059,10.38,9.059,17.284v30.613c0,6.681-3.055,12.8-8.398,16.813
			c-3.708,2.775-8.085,4.228-12.569,4.228c-1.965,0-3.956-0.281-5.921-0.851l-16.706-4.848c-2.106-0.611-4.071-1.511-5.954-2.519
			V495.6c0.685,0.008,1.263,0.008,1.998,0.017c28.986,0.314,81.961,0.809,126.976-7.589l-3.113-3.625
			c-1.288-1.577-105.307-137.844,9.877-288.628c9.943-2.32,19.704-6.383,29.068-12.742c0.768-0.52,1.495-1.123,2.254-1.668
			c1.685-1.222,3.369-2.42,5.029-3.79c2.453-2.023,4.847-4.187,7.168-6.516c-64.396,64.405-90.963,134.648-78.955,208.789
			c9.109,56.246,38.02,93.688,38.309,94.068l8.588,10.017c20.191-5.293,37.607-12.866,48.574-23.841
			c3.229-3.221,3.229-8.448,0-11.677C450.876,447.383,349.954,343.422,436.738,169.342z M161.415,175.263l-0.107,0.033
			c-2.164,0.727-4.286,1.354-6.392,1.957c-0.231,0.066-0.454,0.124-0.685,0.19c-1.082,0.297-2.172,0.578-3.262,0.851
			c-0.71,0.173-1.42,0.347-2.131,0.512c-0.248,0.058-0.495,0.107-0.752,0.165c-1.511,0.339-3.022,0.669-4.542,0.95
			c-0.553,0.099-1.107,0.173-1.66,0.264c-1.503,0.248-3.006,0.495-4.501,0.685c-0.578,0.066-1.156,0.107-1.734,0.165
			c-1.486,0.157-2.973,0.314-4.459,0.405c-0.57,0.033-1.14,0.033-1.709,0.058c-1.486,0.058-2.981,0.124-4.476,0.107
			c-0.57,0-1.14-0.049-1.709-0.066c-1.486-0.041-2.973-0.083-4.451-0.206c-0.537-0.041-1.074-0.132-1.61-0.182
			c-1.511-0.157-3.014-0.314-4.517-0.553c-0.462-0.074-0.925-0.198-1.387-0.281c-1.561-0.281-3.13-0.57-4.682-0.958
			c-0.19-0.05-0.388-0.124-0.578-0.173c-3.7-0.95-7.35-2.188-10.942-3.774c-0.099-0.041-0.206-0.074-0.306-0.116
			c-1.049-0.471-2.089-1.049-3.13-1.577c-0.9-0.454-1.809-0.859-2.692-1.363c-0.958-0.537-1.899-1.173-2.849-1.767
			c-0.95-0.595-1.908-1.148-2.849-1.792c-0.917-0.628-1.809-1.363-2.717-2.048c-0.95-0.719-1.908-1.396-2.849-2.172
			c-0.875-0.735-1.726-1.561-2.593-2.345s-1.742-1.544-2.601-2.387c-0.198-0.306-0.487-0.76-0.809-1.297
			c-0.083-0.132-0.173-0.289-0.264-0.438c-0.859-1.429-2.023-3.468-3.394-6.185c-0.008-0.017-0.016-0.025-0.025-0.041
			c-5.814-11.503-15.013-34.345-17.358-66.676c43.165,6.177,96.289,26.261,126.596,83.77
			C171.869,171.423,166.576,173.52,161.415,175.263z M237.62,130.141c-0.231,0.198-0.471,0.396-0.718,0.603
			c-0.545,0.454-1.123,0.933-1.718,1.429c-0.388,0.322-0.793,0.652-1.197,0.983c-0.504,0.405-1.016,0.826-1.544,1.255
			c-0.553,0.438-1.131,0.9-1.709,1.363c-0.454,0.355-0.917,0.718-1.387,1.09c-0.685,0.537-1.387,1.082-2.114,1.635
			c-0.429,0.33-0.867,0.661-1.313,0.999c-0.801,0.611-1.627,1.23-2.469,1.866c-0.413,0.297-0.826,0.611-1.247,0.917
			c-0.908,0.669-1.833,1.346-2.783,2.023c-0.405,0.297-0.818,0.586-1.23,0.875c-0.999,0.71-2.015,1.429-3.055,2.147
			c-0.396,0.273-0.809,0.553-1.214,0.834c-1.09,0.743-2.197,1.495-3.336,2.246c-0.38,0.256-0.768,0.512-1.156,0.76
			c-1.181,0.776-2.37,1.553-3.592,2.32c-0.38,0.248-0.768,0.487-1.148,0.727c-1.247,0.784-2.51,1.561-3.799,2.337
			c-0.388,0.239-0.784,0.471-1.173,0.702c-1.305,0.785-2.634,1.561-3.98,2.329c-0.388,0.223-0.776,0.438-1.164,0.661
			c-0.867,0.487-1.742,0.966-2.618,1.445c-34.106-65.09-94.018-86.933-141.75-93.192c0.074-15.616,1.726-32.925,6.02-51.985
			c0.784,0,1.569-0.008,2.345-0.008c93.779,0,154.228,38.02,179.762,113.036C238.091,129.744,237.868,129.934,237.62,130.141z
			 M303.825,161.645c-0.479-0.256-0.95-0.52-1.429-0.776c-0.677-0.38-1.363-0.76-2.032-1.14c-1.082-0.619-2.139-1.239-3.196-1.858
			c-0.652-0.388-1.305-0.776-1.949-1.164c-1.032-0.619-2.056-1.247-3.064-1.875c-0.644-0.396-1.288-0.801-1.924-1.197
			c-0.974-0.619-1.932-1.239-2.882-1.85c-0.636-0.421-1.272-0.834-1.899-1.247c-0.908-0.595-1.8-1.197-2.676-1.792
			c-0.636-0.429-1.272-0.867-1.891-1.288c-0.834-0.578-1.652-1.148-2.461-1.726c-0.628-0.438-1.255-0.884-1.866-1.321
			c-0.751-0.537-1.486-1.074-2.213-1.602c-0.636-0.462-1.272-0.925-1.891-1.387c-0.644-0.479-1.28-0.958-1.908-1.429
			c-0.661-0.495-1.321-0.999-1.957-1.486c-0.512-0.396-1.024-0.785-1.52-1.173c-0.71-0.553-1.412-1.098-2.081-1.627
			c-0.38-0.306-0.76-0.603-1.123-0.892c-0.751-0.603-1.478-1.189-2.18-1.759c-0.231-0.19-0.471-0.38-0.702-0.57
			c-0.793-0.652-1.561-1.288-2.279-1.891c-0.091-0.074-0.19-0.149-0.281-0.223c-0.347-0.297-0.652-0.562-0.991-0.842
			c25.542-75.016,85.975-113.028,179.762-113.028c0.776,0,1.561,0.008,2.337,0.008c4.294,19.06,5.946,36.369,6.028,51.993
			C397.818,74.762,337.922,96.605,303.825,161.645z M427.721,151.851c-0.016,0.033-0.033,0.066-0.05,0.099
			c-1.371,2.7-2.527,4.732-3.378,6.152c-0.091,0.149-0.182,0.314-0.264,0.446c-0.33,0.537-0.619,0.991-0.809,1.297
			c-0.875,0.859-1.767,1.627-2.651,2.428c-0.826,0.751-1.652,1.552-2.494,2.254c-1.032,0.859-2.089,1.619-3.138,2.403
			c-0.793,0.595-1.569,1.23-2.362,1.784c-1.148,0.793-2.312,1.478-3.477,2.197c-0.727,0.438-1.437,0.941-2.172,1.354
			c-1.363,0.768-2.758,1.437-4.137,2.106c-0.545,0.256-1.082,0.57-1.627,0.818c-1.949,0.875-3.914,1.66-5.896,2.345h-0.008
			c-1.982,0.685-3.964,1.272-5.962,1.775c-0.702,0.173-1.404,0.281-2.106,0.438c-1.313,0.289-2.618,0.595-3.939,0.809
			c-0.851,0.14-1.701,0.206-2.552,0.322c-1.181,0.149-2.362,0.33-3.551,0.429c-0.933,0.074-1.883,0.091-2.816,0.14
			c-1.107,0.05-2.213,0.132-3.32,0.14c-1.007,0.016-2.023-0.041-3.031-0.066c-1.041-0.025-2.081-0.025-3.122-0.083
			c-1.074-0.058-2.139-0.182-3.204-0.281c-0.991-0.091-1.974-0.157-2.956-0.273c-1.107-0.14-2.213-0.322-3.32-0.495
			c-0.941-0.14-1.891-0.264-2.824-0.438c-1.131-0.198-2.254-0.454-3.386-0.685c-0.917-0.198-1.833-0.372-2.75-0.586
			c-1.14-0.273-2.279-0.578-3.419-0.884c-0.884-0.231-1.775-0.454-2.659-0.702c-1.156-0.339-2.304-0.702-3.46-1.065
			c-0.851-0.264-1.709-0.52-2.552-0.809c-0.826-0.272-1.643-0.578-2.461-0.867c-1.412-0.504-2.816-0.999-4.245-1.552
			c-0.785-0.306-1.569-0.619-2.345-0.933c-2.048-0.826-4.112-1.693-6.194-2.626c-0.008-0.008-0.025-0.008-0.033-0.016l-0.578-0.256
			c30.307-57.484,83.423-77.576,126.596-83.762C442.717,117.506,433.543,140.331,427.721,151.851z"/>
	</g>
</g>
<g>
	<g>
		<path d="M287.225,217.22c-0.727-0.495-2.213-1.239-4.162-0.512l-17.449,6.573c-5.665,2.139-9.48,7.647-9.48,13.692
			c0,6.467,4.343,12.247,10.562,14.056l16.706,4.848c1.875,0.529,3.295-0.223,3.964-0.727c0.677-0.504,1.8-1.643,1.8-3.601v-30.613
			C289.166,218.88,287.952,217.724,287.225,217.22z"/>
	</g>
</g>
<g>
</g>
<g>
</g>
<g>
</g>
<g>
</g>
<g>
</g>
<g>
</g>
<g>
</g>
<g>
</g>
<g>
</g>
<g>
</g>
<g>
</g>
<g>
</g>
<g>
</g>
<g>
</g>
<g>
</g>
</svg>
